<?xml version="1.0" encoding="UTF-8"?>
<svg width="504px" height="504px" viewBox="0 0 504 504" version="1.1" xmlns="http://www.w3.org/2000/svg" xmlns:xlink="http://www.w3.org/1999/xlink">
    <!-- Generator: Sketch 51.3 (57544) - http://www.bohemiancoding.com/sketch -->
    <title>Group 3</title>
    <desc>Created with Sketch.</desc>
    <defs></defs>
    <g id="Page-1" stroke="none" stroke-width="1" fill="none" fill-rule="evenodd">
        <g id="Group-3" transform="translate(-43.000000, -43.000000)">
            <g id="Group-2" fill="#F6374F">
                <rect id="Rectangle-2" x="87" y="87" width="416" height="416" rx="104"></rect>
                <rect id="Rectangle-2" transform="translate(295.000000, 295.000000) rotate(45.000000) translate(-295.000000, -295.000000) " x="87" y="87" width="416" height="416" rx="104"></rect>
            </g>
            <path d="M220.5725,257.165 C215.559142,253.091646 210.545858,250.075843 205.5325,248.1175 C200.519142,246.159157 195.662524,245.18 190.9625,245.18 C185.009137,245.18 180.152519,246.589986 176.3925,249.41 C172.632481,252.230014 170.7525,255.911644 170.7525,260.455 C170.7525,263.588349 171.692491,266.173323 173.5725,268.21 C175.452509,270.246677 177.919985,272.009159 180.975,273.4975 C184.030015,274.985841 187.476647,276.278328 191.315,277.375 C195.153353,278.471672 198.952481,279.64666 202.7125,280.9 C217.752575,285.913358 228.758298,292.610791 235.73,300.9925 C242.701702,309.374209 246.1875,320.301599 246.1875,333.775 C246.1875,342.861712 244.660015,351.08663 241.605,358.45 C238.549985,365.81337 234.085029,372.11914 228.21,377.3675 C222.334971,382.61586 215.128376,386.689152 206.59,389.5875 C198.051624,392.485848 188.377554,393.935 177.5675,393.935 C155.164055,393.935 134.405929,387.276733 115.2925,373.96 L135.0325,336.83 C141.925868,342.940031 148.7408,347.483318 155.4775,350.46 C162.2142,353.436682 168.872467,354.925 175.4525,354.925 C182.972538,354.925 188.573315,353.201684 192.255,349.755 C195.936685,346.308316 197.7775,342.391689 197.7775,338.005 C197.7775,335.341653 197.307505,333.030843 196.3675,331.0725 C195.427495,329.114157 193.860844,327.312508 191.6675,325.6675 C189.474156,324.022492 186.615018,322.495007 183.09,321.085 C179.564982,319.674993 175.295858,318.108342 170.2825,316.385 C164.329137,314.504991 158.493362,312.429178 152.775,310.1575 C147.056638,307.885822 141.965022,304.870019 137.5,301.11 C133.034978,297.349981 129.43168,292.610862 126.69,286.8925 C123.94832,281.174138 122.5775,273.928377 122.5775,265.155 C122.5775,256.381623 124.026652,248.430869 126.925,241.3025 C129.823348,234.174131 133.89664,228.064192 139.145,222.9725 C144.39336,217.880808 150.816629,213.925014 158.415,211.105 C166.013371,208.284986 174.512453,206.875 183.9125,206.875 C192.685877,206.875 201.850786,208.089155 211.4075,210.5175 C220.964214,212.945845 230.129123,216.509976 238.9025,221.21 L220.5725,257.165 Z M344.6525,280.195 L411.1575,280.195 L411.1575,211.81 L457.2175,211.81 L457.2175,389 L411.1575,389 L411.1575,315.915 L344.6525,315.915 L344.6525,389 L298.5925,389 L298.5925,211.81 L344.6525,211.81 L344.6525,280.195 Z" id="SH" fill="#FFFFFF"></path>
        </g>
    </g>
</svg>