<?xml version="1.0" encoding="UTF-8"?>
<svg width="389px" height="229px" viewBox="0 0 389 229" version="1.1" xmlns="http://www.w3.org/2000/svg" xmlns:xlink="http://www.w3.org/1999/xlink">
    <!-- Generator: Sketch 47.1 (45422) - http://www.bohemiancoding.com/sketch -->
    <title>Group 2</title>
    <desc>Created with Sketch.</desc>
    <defs></defs>
    <g id="Page-1" stroke="none" stroke-width="1" fill="none" fill-rule="evenodd">
        <g id="Group-2" fill-rule="nonzero">
            <g id="Group">
                <g id="assembly-4" transform="translate(0.000000, 1.000000)">
                    <path d="M56.698,0 L56.698,56.6984121 L0,56.6984121 L56.698,0 Z M0,28.3493091 L28.3489485,28.3493091 L28.3489485,0 L0,28.3493091 Z" id="Shape" fill="#16EABA"></path>
                    <path d="M113.698,57 L113.698,113.698412 L57,113.698412 L113.698,57 Z M170.698,114 L170.698,170.698412 L114,170.698412 L170.698,114 Z M227.698,171 L227.698,227.698412 L171,227.698412 L227.698,171 Z M57,85.3493091 L85.3489485,85.3493091 L85.3489485,57 L57,85.3493091 Z" id="Shape" fill="#FF3979"></path>
                    <path d="M37.8489312,170.924534 C37.8489312,181.344568 29.3443617,189.849138 18.9242593,189.849138 C8.50415694,189.849138 0,181.344568 0,170.924534 C0,160.50457 8.50415694,152 18.9242593,152 C29.3443617,152 37.8489312,160.50457 37.8489312,170.924534 Z M56.7734656,152 C46.3535008,152 37.8489312,160.50457 37.8489312,170.924534 C37.8489312,181.344568 46.3535008,189.849138 56.7734656,189.849138 C67.1934992,189.849138 75.698,181.344568 75.698,170.924534 C75.698,160.50457 67.1934992,152 56.7734656,152 Z M18.9242593,189.849138 C8.50415694,189.849138 0,198.353638 0,208.773741 C0,219.193843 8.50415694,227.698 18.9242593,227.698 C29.3443617,227.698 37.8489312,219.193843 37.8489312,208.773741 C37.8489312,198.353638 29.3443617,189.849138 18.9242593,189.849138 Z M56.7734656,189.849138 C46.3535008,189.849138 37.8489312,198.353638 37.8489312,208.773741 C37.8489312,219.193843 46.3535008,227.698 56.7734656,227.698 C67.1934992,227.698 75.698,219.193843 75.698,208.773741 C75.698,198.353638 67.1934992,189.849138 56.7734656,189.849138 Z" id="Shape" fill="#FFC843"></path>
                    <path d="M332.7,62 L332.7,62 C329.564984,62 327,58.9850237 327,55.3000122 L327,1.70035303 C327,-1.98459766 329.564984,-5 332.7,-5 L332.7,-5 C335.834964,-5 338.399948,-1.98459766 338.399948,1.70035303 L338.399948,55.3000122 C338.399948,58.9850237 335.834964,62 332.7,62 Z M361.199896,55.3000122 L361.199896,1.70035303 C361.199896,-1.98459766 358.634912,-5 355.499948,-5 L355.499948,-5 C352.364933,-5 349.799948,-1.98459766 349.799948,1.70035303 L349.799948,55.3000122 C349.799948,58.9850237 352.364933,62 355.499948,62 L355.499948,62 C358.634912,62 361.199896,58.9850237 361.199896,55.3000122 Z M384,55.3000122 L384,1.70035303 C384,-1.98459766 381.434653,-5 378.299689,-5 L378.299689,-5 C375.164726,-5 372.599896,-1.98459766 372.599896,1.70035303 L372.599896,55.3000122 C372.599896,58.9850237 375.164726,62 378.299689,62 L378.299689,62 C381.434653,62 384,58.9850237 384,55.3000122 Z" id="Shape" fill="#4350EF" transform="translate(355.500000, 28.500000) rotate(90.000000) translate(-355.500000, -28.500000) "></path>
                    <path d="M389.00024,178.000029 C389.00024,205.600164 366.599801,227.999695 339.000029,227.999695 C311.399985,227.999695 289,205.600164 289,178.000029 C289,150.399985 311.399985,128 339.000029,128 C366.599801,128 389.00024,150.399985 389.00024,178.000029 Z M339.000029,147.999957 C322.399975,147.999957 308.999957,161.399975 308.999957,178.000029 C308.999957,194.599993 322.399975,208.000374 339.000029,208.000374 C355.599993,208.000374 369.00001,194.599993 369.00001,178.000029 C369.00001,161.399975 355.599993,147.999957 339.000029,147.999957 Z" id="Shape" fill="#11DD89"></path>
                </g>
                <g id="assembly-5" transform="translate(192.000000, 0.000000)" fill="#A244F4">
                    <path d="M62,0 L5,0 L5,0 C2.23857625,5.07265313e-16 -3.38176876e-16,2.23857625 0,5 L0,62 L0,62 C3.38176876e-16,64.7614237 2.23857625,67 5,67 L62,67 L62,67 C64.7614237,67 67,64.7614237 67,62 L67,5 L67,5 C67,2.23857625 64.7614237,-5.07265313e-16 62,0 Z M13,33.4999972 C13,29.9545506 15.8888857,27 19.5,27 C23.1111143,27 26,29.8888857 26,33.4999972 C26,37.0454466 23.1111143,40 19.5,40 C15.8888857,40 13,37.0454466 13,33.4999972 Z M40,33.4999972 C40,29.9545506 42.888892,27 46.5000141,27 C50.0454713,27 53,29.8888857 53,33.4999972 C53,37.0454466 50.111108,40 46.5000141,40 C42.888892,40 40,37.0454466 40,33.4999972 Z" id="Shape"></path>
                </g>
            </g>
            <path d="M149.483953,44.7419987 L149.483953,35 L139.741977,35 L149.483953,44.7419987 Z M139.741977,44.7419987 L139.741977,35 L130,35 L139.741977,44.7419987 Z M149.483953,44.7814399 L139.741977,44.7814399 L139.741977,54.5234 L149.483953,44.7814399 Z" id="Shape" fill="#B5B6B9"></path>
            <path d="M255.521898,123.704075 L255.521898,104.962055 L236.779921,104.962055 L255.521898,123.704075 Z M236.779921,123.704075 L236.779921,104.962055 L218.037945,104.962055 L236.779921,123.704075 Z M255.521898,123.779953 L236.779921,123.779953 L236.779921,142.521898 L255.521898,123.779953 Z" id="Shape" fill="#43A7FA" transform="translate(236.779921, 123.741977) rotate(90.000000) translate(-236.779921, -123.741977) "></path>
        </g>
    </g>
</svg>